ffmpeg started on 2025-06-27 at 15:05:19
Report written to "D:\Convert\FFMetrics\reports\ssim_report-6.txt"
Log level: 32
Command line:
ffmpeg -hide_banner -nostdin -i "E:\\YandexDisk\\\xc0\xed\xe8\xec\xe5\\[\xd2\xee\xef]\\\xd1\xf2\xe0\xeb\xfc\xed\xe0\xff \xf2\xf0\xe5\xe2\xee\xe3\xe0!\\\xd2\xc2-1\\Full Metal Panic! [Opening & Ending]\\Full Metal Panic! ED1_HEVC.mkv" -i "E:\\YandexDisk\\\xc0\xed\xe8\xec\xe5\\[\xd2\xee\xef]\\\xd1\xf2\xe0\xeb\xfc\xed\xe0\xff \xf2\xf0\xe5\xe2\xee\xe3\xe0!\\\xd2\xc2-1\\Full Metal Panic! [Opening & Ending]\\Full Metal Panic! ED1.mkv" -lavfi "[0:v]settb=AVTB,setpts=PTS-STARTPTS,format=pix_fmts=yuv420p10,fps=24000/1001,scale=1440:1080:flags=bicubic[main];[1:v]settb=AVTB,setpts=PTS-STARTPTS,format=pix_fmts=yuv420p,fps=24000/1001,scale=1440:1080:flags=bicubic[ref];[main][ref]ssim=eof_action=endall:stats_file='D\\:/Convert/FFMetrics/logs/ssim_logfile-6.txt'" -f null -
[aist#0:1/aac @ 0000017e4788b000] Guessed Channel Layout: 5.1
Input #0, matroska,webm, from 'E:\YandexDisk\Аниме\[Топ]\Стальная тревога!\ТВ-1\Full Metal Panic! [Opening & Ending]\Full Metal Panic! ED1_HEVC.mkv':
  Metadata:
    ENCODER         : Lavf61.7.100
  Duration: 00:01:32.09, start: -0.021000, bitrate: 338 kb/s
  Stream #0:0(jpn): Video: hevc (Main 10), yuv420p10le(tv, bt709, progressive), 1440x1080 [SAR 1:1 DAR 4:3], 23.98 fps, 23.98 tbr, 1k tbn (default)
      Metadata:
        ENCODER         : Lavc61.19.100 libx265
        BPS             : 141236
        DURATION        : 00:01:32.091708333
        NUMBER_OF_FRAMES: 2208
        NUMBER_OF_BYTES : 1625830
        _STATISTICS_WRITING_APP: mkvpropedit v66.0.0 ('Josie') 64-bit
        _STATISTICS_WRITING_DATE_UTC: 2025-06-27 11:56:15
        _STATISTICS_TAGS: BPS DURATION NUMBER_OF_FRAMES NUMBER_OF_BYTES
  Stream #0:1(jpn): Audio: aac (LC), 48000 Hz, 5.1, fltp (default)
      Metadata:
        title           : Japanese
        ENCODER         : Lavc61.19.100 aac
        BPS             : 192573
        DURATION        : 00:01:32.074000000
        NUMBER_OF_FRAMES: 4317
        NUMBER_OF_BYTES : 2216375
        _STATISTICS_WRITING_APP: mkvpropedit v66.0.0 ('Josie') 64-bit
        _STATISTICS_WRITING_DATE_UTC: 2025-06-27 11:56:15
        _STATISTICS_TAGS: BPS DURATION NUMBER_OF_FRAMES NUMBER_OF_BYTES
Input #1, matroska,webm, from 'E:\YandexDisk\Аниме\[Топ]\Стальная тревога!\ТВ-1\Full Metal Panic! [Opening & Ending]\Full Metal Panic! ED1.mkv':
  Metadata:
    encoder         : libebml v0.7.7 + libmatroska v0.8.1
    creation_time   : 2009-09-10T11:59:56.000000Z
  Duration: 00:01:32.09, start: 0.000000, bitrate: 632 kb/s
  Stream #1:0(jpn): Video: h264 (High), yuv420p(progressive), 1440x1080, SAR 1:1 DAR 4:3, 23.98 fps, 23.98 tbr, 1k tbn (default)
  Stream #1:1(jpn): Audio: ac3, 48000 Hz, 5.1(side), fltp, 448 kb/s (default)
      Metadata:
        title           : Japanese
Stream mapping:
  Stream #0:0 (hevc) -> settb:default
  Stream #1:0 (h264) -> settb:default
  ssim:default -> Stream #0:0 (wrapped_avframe)
  Stream #0:1 -> #0:1 (aac (native) -> pcm_s16le (native))
[swscaler @ 0000017e59b24a80] No accelerated colorspace conversion found from yuv420p to bgr48le.
[swscaler @ 0000017e59c7f140] No accelerated colorspace conversion found from yuv420p to bgr48le.
[swscaler @ 0000017e59d58140] No accelerated colorspace conversion found from yuv420p to bgr48le.
[swscaler @ 0000017e59e4fd80] No accelerated colorspace conversion found from yuv420p to bgr48le.
[swscaler @ 0000017e59e81040] No accelerated colorspace conversion found from yuv420p to bgr48le.
[swscaler @ 0000017e5d83d280] No accelerated colorspace conversion found from yuv420p to bgr48le.
[swscaler @ 0000017e5d8dc040] No accelerated colorspace conversion found from yuv420p to bgr48le.
[swscaler @ 0000017e5d8f6000] No accelerated colorspace conversion found from yuv420p to bgr48le.
[swscaler @ 0000017e5d92ffc0] No accelerated colorspace conversion found from yuv420p to bgr48le.
[swscaler @ 0000017e5d9fb040] No accelerated colorspace conversion found from yuv420p to bgr48le.
[swscaler @ 0000017e5da61040] No accelerated colorspace conversion found from yuv420p to bgr48le.
[swscaler @ 0000017e5dafe040] No accelerated colorspace conversion found from yuv420p to bgr48le.
[swscaler @ 0000017e5db7b040] No accelerated colorspace conversion found from yuv420p to bgr48le.
[swscaler @ 0000017e5db96140] No accelerated colorspace conversion found from yuv420p to bgr48le.
[swscaler @ 0000017e5dc47040] No accelerated colorspace conversion found from yuv420p to bgr48le.
[swscaler @ 0000017e5dca5040] No accelerated colorspace conversion found from yuv420p to bgr48le.
Output #0, null, to 'pipe:':
  Metadata:
    encoder         : Lavf61.7.100
  Stream #0:0: Video: wrapped_avframe, yuv420p10le(tv, bt709, progressive), 1440x1080 [SAR 1:1 DAR 4:3], q=2-31, 200 kb/s, 23.98 fps, 23.98 tbn
      Metadata:
        encoder         : Lavc61.19.100 wrapped_avframe
  Stream #0:1(jpn): Audio: pcm_s16le, 48000 Hz, 6 channels, s16, 4608 kb/s (default)
      Metadata:
        title           : Japanese
        _STATISTICS_TAGS: BPS DURATION NUMBER_OF_FRAMES NUMBER_OF_BYTES
        BPS             : 192573
        DURATION        : 00:01:32.074000000
        NUMBER_OF_FRAMES: 4317
        NUMBER_OF_BYTES : 2216375
        _STATISTICS_WRITING_APP: mkvpropedit v66.0.0 ('Josie') 64-bit
        _STATISTICS_WRITING_DATE_UTC: 2025-06-27 11:56:15
        encoder         : Lavc61.19.100 pcm_s16le
frame=   38 fps=0.0 q=-0.0 size=N/A time=00:00:01.58 bitrate=N/A speed=3.09x    frame=   86 fps= 83 q=-0.0 size=N/A time=00:00:03.58 bitrate=N/A speed=3.45x    frame=  134 fps= 87 q=-0.0 size=N/A time=00:00:05.58 bitrate=N/A speed=3.61x    frame=  182 fps= 88 q=-0.0 size=N/A time=00:00:07.59 bitrate=N/A speed=3.68x    frame=  234 fps= 91 q=-0.0 size=N/A time=00:00:09.75 bitrate=N/A speed=3.78x    frame=  277 fps= 90 q=-0.0 size=N/A time=00:00:11.55 bitrate=N/A speed=3.74x    frame=  321 fps= 89 q=-0.0 size=N/A time=00:00:13.38 bitrate=N/A speed= 3.7x    frame=  374 fps= 91 q=-0.0 size=N/A time=00:00:15.59 bitrate=N/A speed=3.78x    frame=  420 fps= 90 q=-0.0 size=N/A time=00:00:17.51 bitrate=N/A speed=3.77x    frame=  471 fps= 91 q=-0.0 size=N/A time=00:00:19.64 bitrate=N/A speed= 3.8x    frame=  518 fps= 91 q=-0.0 size=N/A time=00:00:21.60 bitrate=N/A speed=3.81x    frame=  567 fps= 92 q=-0.0 size=N/A time=00:00:23.64 bitrate=N/A speed=3.82x    frame=  614 fps= 92 q=-0.0 size=N/A time=00:00:25.60 bitrate=N/A speed=3.82x    frame=  663 fps= 92 q=-0.0 size=N/A time=00:00:27.65 bitrate=N/A speed=3.83x    frame=  712 fps= 92 q=-0.0 size=N/A time=00:00:29.69 bitrate=N/A speed=3.84x    frame=  761 fps= 92 q=-0.0 size=N/A time=00:00:31.74 bitrate=N/A speed=3.84x    frame=  809 fps= 92 q=-0.0 size=N/A time=00:00:33.74 bitrate=N/A speed=3.85x    frame=  852 fps= 92 q=-0.0 size=N/A time=00:00:35.53 bitrate=N/A speed=3.83x    frame=  904 fps= 92 q=-0.0 size=N/A time=00:00:37.70 bitrate=N/A speed=3.85x    frame=  953 fps= 92 q=-0.0 size=N/A time=00:00:39.74 bitrate=N/A speed=3.85x    frame=  996 fps= 92 q=-0.0 size=N/A time=00:00:41.54 bitrate=N/A speed=3.83x    frame= 1048 fps= 92 q=-0.0 size=N/A time=00:00:43.71 bitrate=N/A speed=3.85x    frame= 1096 fps= 92 q=-0.0 size=N/A time=00:00:45.71 bitrate=N/A speed=3.85x    frame= 1146 fps= 93 q=-0.0 size=N/A time=00:00:47.79 bitrate=N/A speed=3.86x    frame= 1194 fps= 93 q=-0.0 size=N/A time=00:00:49.79 bitrate=N/A speed=3.86x    frame= 1241 fps= 93 q=-0.0 size=N/A time=00:00:51.76 bitrate=N/A speed=3.86x    frame= 1279 fps= 92 q=-0.0 size=N/A time=00:00:53.34 bitrate=N/A speed=3.83x    frame= 1340 fps= 93 q=-0.0 size=N/A time=00:00:55.88 bitrate=N/A speed=3.87x    frame= 1389 fps= 93 q=-0.0 size=N/A time=00:00:57.93 bitrate=N/A speed=3.87x    frame= 1436 fps= 93 q=-0.0 size=N/A time=00:00:59.89 bitrate=N/A speed=3.87x    frame= 1472 fps= 92 q=-0.0 size=N/A time=00:01:01.39 bitrate=N/A speed=3.84x    frame= 1527 fps= 93 q=-0.0 size=N/A time=00:01:03.68 bitrate=N/A speed=3.86x    frame= 1580 fps= 93 q=-0.0 size=N/A time=00:01:05.89 bitrate=N/A speed=3.87x    frame= 1614 fps= 92 q=-0.0 size=N/A time=00:01:07.31 bitrate=N/A speed=3.84x    frame= 1673 fps= 93 q=-0.0 size=N/A time=00:01:09.77 bitrate=N/A speed=3.87x    frame= 1719 fps= 93 q=-0.0 size=N/A time=00:01:11.69 bitrate=N/A speed=3.86x    frame= 1769 fps= 93 q=-0.0 size=N/A time=00:01:13.78 bitrate=N/A speed=3.87x    frame= 1814 fps= 93 q=-0.0 size=N/A time=00:01:15.65 bitrate=N/A speed=3.86x    frame= 1858 fps= 92 q=-0.0 size=N/A time=00:01:17.49 bitrate=N/A speed=3.85x    frame= 1908 fps= 92 q=-0.0 size=N/A time=00:01:19.57 bitrate=N/A speed=3.86x    frame= 1957 fps= 93 q=-0.0 size=N/A time=00:01:21.62 bitrate=N/A speed=3.86x    frame= 2004 fps= 93 q=-0.0 size=N/A time=00:01:23.58 bitrate=N/A speed=3.86x    frame= 2054 fps= 93 q=-0.0 size=N/A time=00:01:25.66 bitrate=N/A speed=3.86x    frame= 2095 fps= 92 q=-0.0 size=N/A time=00:01:27.37 bitrate=N/A speed=3.85x    frame= 2154 fps= 93 q=-0.0 size=N/A time=00:01:29.83 bitrate=N/A speed=3.87x    frame= 2203 fps= 93 q=-0.0 size=N/A time=00:01:31.88 bitrate=N/A speed=3.87x    [Parsed_ssim_10 @ 0000017e4a9fb7c0] SSIM Y:0.997294 (25.677342) U:0.999286 (31.462154) V:0.999184 (30.880806) All:0.997941 (26.863778)
[out#0/null @ 0000017e47e5cc00] video:949KiB audio:51804KiB subtitle:0KiB other streams:0KiB global headers:0KiB muxing overhead: unknown
frame= 2208 fps= 93 q=-0.0 Lsize=N/A time=00:01:32.09 bitrate=N/A speed=3.87x    
